<svg width="47.99999999999999" height="47.99999999999999" xmlns="http://www.w3.org/2000/svg">

 <g>
  <title>background</title>
  <rect fill="none" id="canvas_background" height="402" width="582" y="-1" x="-1"/>
 </g>
 <g>
  <title>Layer 1</title>
  <g stroke="null" id="Expanded">
   <ellipse stroke="#000" ry="11.634594" rx="12.115363" id="svg_38" cy="30.153837" cx="19.48078" fill-opacity="null" stroke-opacity="null" stroke-width="0" fill="#fff"/>
   <rect stroke="#000" id="svg_56" height="3.65384" width="6.730757" y="16.019247" x="16.019247" fill-opacity="null" stroke-opacity="null" stroke-width="0" fill="#fff"/>
   <g stroke="null" id="svg_55">
    <g stroke="null" id="svg_40">
     <path stroke="null" id="svg_39" d="m19.427347,42.807702c-7.276268,0 -13.196586,-5.682586 -13.196586,-12.666672c0,-5.467253 3.699993,-10.325714 9.072653,-12.022256l0,-2.227751c0,-0.437001 0.369504,-0.791667 0.824787,-0.791667l6.598292,0c0.455283,0 0.824787,0.354666 0.824787,0.791667l0,2.227751c5.37266,1.696542 9.072653,6.555003 9.072653,12.022256c0,6.984086 -5.919494,12.666672 -13.196586,12.666672zm-2.47436,-26.125012l0,2.023501c0,0.35625 -0.247436,0.668167 -0.604568,0.763167c-4.985836,1.322875 -8.468085,5.711086 -8.468085,10.671672c0,6.111669 5.17966,11.083338 11.547013,11.083338s11.547013,-4.971669 11.547013,-11.083338c0,-4.960586 -3.482249,-9.348797 -8.468085,-10.671672c-0.356307,-0.095792 -0.604568,-0.407709 -0.604568,-0.763167l0,-2.023501l-4.94872,0z"/>
    </g>
    <g stroke="null" id="svg_42">
     <path stroke="null" id="svg_41" d="m30.97436,17.474357c-2.273937,0 -4.123933,-1.775709 -4.123933,-3.958336c0,-1.746417 -1.479668,-3.166668 -3.299147,-3.166668s-3.299146,1.420251 -3.299146,3.166668l0,2.375002c0,0.437 -0.369505,0.791667 -0.824787,0.791667s-0.824787,-0.354667 -0.824787,-0.791667l0,-2.375002c0,-2.619626 2.219501,-4.750002 4.94872,-4.750002s4.94872,2.130376 4.94872,4.750002c0,1.309418 1.110163,2.375002 2.47436,2.375002s2.47436,-1.065584 2.47436,-2.375002s1.110162,-2.375001 2.474359,-2.375001c0.455283,0 0.824787,0.354667 0.824787,0.791667s-0.369504,0.791667 -0.824787,0.791667c-0.454457,0 -0.824786,0.355459 -0.824786,0.791667c0,2.182627 -1.849997,3.958336 -4.123933,3.958336z"/>
    </g>
    <g stroke="null" id="svg_44">
     <path stroke="null" id="svg_43" d="m35.923079,9.557686c-0.455282,0 -0.824786,-0.354667 -0.824786,-0.791667l0,-3.166668c0,-0.437 0.369504,-0.791667 0.824786,-0.791667s0.824787,0.354667 0.824787,0.791667l0,3.166668c0,0.437 -0.36868,0.791667 -0.824787,0.791667z"/>
    </g>
    <g stroke="null" id="svg_46">
     <path stroke="null" id="svg_45" d="m38.256401,10.48552c-0.211146,0 -0.422291,-0.077583 -0.583124,-0.231958c-0.322492,-0.308751 -0.322492,-0.809876 0,-1.119418l2.332496,-2.239626c0.321667,-0.309542 0.843757,-0.309542 1.166248,0c0.322492,0.30875 0.322492,0.809876 0,1.119417l-2.332496,2.239627c-0.160833,0.154375 -0.372804,0.231958 -0.583124,0.231958z"/>
    </g>
    <g stroke="null" id="svg_48">
     <path stroke="null" id="svg_47" d="m33.590583,10.48552c-0.211146,0 -0.422291,-0.077583 -0.583124,-0.231958l-2.332497,-2.239627c-0.322491,-0.309541 -0.322491,-0.810667 0,-1.119417c0.322492,-0.309542 0.843757,-0.309542 1.166248,0l2.332497,2.239626c0.322492,0.309542 0.322492,0.810667 0,1.119418c-0.160833,0.154375 -0.371979,0.231958 -0.583124,0.231958z"/>
    </g>
    <g stroke="null" id="svg_50">
     <path stroke="null" id="svg_49" d="m42.521372,12.724354l-3.299146,0c-0.455282,0 -0.824787,-0.354666 -0.824787,-0.791667s0.369505,-0.791667 0.824787,-0.791667l3.299146,0c0.455283,0 0.824787,0.354667 0.824787,0.791667s-0.369504,0.791667 -0.824787,0.791667z"/>
    </g>
    <g stroke="null" id="svg_52">
     <path stroke="null" id="svg_51" d="m40.588897,17.201232c-0.211145,0 -0.42229,-0.077584 -0.583124,-0.231167l-2.334146,-2.238043c-0.322492,-0.309542 -0.322492,-0.809875 0,-1.120209c0.322492,-0.309542 0.844582,-0.30875 1.167073,0l2.334146,2.238043c0.322492,0.309542 0.322492,0.809875 0,1.120209c-0.161658,0.154375 -0.372803,0.231167 -0.583949,0.231167z"/>
    </g>
    <g stroke="null" id="svg_54">
     <path stroke="null" id="svg_53" d="m11.986122,35.912282c-0.260632,0 -0.517141,-0.117958 -0.67715,-0.338833c-1.511834,-2.082084 -2.088359,-4.604336 -1.62318,-7.102045c0.464355,-2.498501 1.915155,-4.673211 4.084344,-6.123545c0.374453,-0.249375 0.88747,-0.1615 1.148103,0.197125c0.260632,0.358625 0.169081,0.852626 -0.205372,1.102001c-3.731335,2.496126 -4.650972,7.440087 -2.05042,11.021589c0.260633,0.358625 0.169081,0.852625 -0.205372,1.102c-0.144337,0.095792 -0.30847,0.141708 -0.470953,0.141708z"/>
    </g>
   </g>
  </g>
 </g>
</svg>